<mxfile host="app.diagrams.net" modified="2022-03-11T07:07:10.904Z" agent="5.0 (Windows NT 10.0; Win64; x64) AppleWebKit/537.36 (KHTML, like Gecko) Chrome/99.0.4844.51 Safari/537.36" etag="6wx-fJ7GozM-jMJSnUVb" version="16.6.6" type="github">
  <diagram id="Ysdi46i-99yUtM1DqoCF" name="第 1 页">
    <mxGraphModel dx="595" dy="794" grid="1" gridSize="10" guides="1" tooltips="1" connect="1" arrows="1" fold="1" page="1" pageScale="1" pageWidth="827" pageHeight="1169" math="0" shadow="0">
      <root>
        <mxCell id="0" />
        <mxCell id="1" parent="0" />
        <mxCell id="MGGplR80oqm_p2nbfz-M-1" value="DWD" style="shape=image;imageAspect=0;aspect=fixed;verticalLabelPosition=bottom;verticalAlign=top;shadow=1;sketch=1;fontSize=13;strokeWidth=2;image=https://upload.wikimedia.org/wikipedia/commons/thumb/b/bb/Apache_Hive_logo.svg/1200px-Apache_Hive_logo.svg.png;" parent="1" vertex="1">
          <mxGeometry x="910" y="321.5" width="79.45" height="71.5" as="geometry" />
        </mxCell>
        <mxCell id="MGGplR80oqm_p2nbfz-M-2" value="ADS&#xa;&#xa;用户标签表" style="shape=image;imageAspect=0;aspect=fixed;verticalLabelPosition=bottom;verticalAlign=top;shadow=1;sketch=1;fontSize=13;strokeWidth=2;image=https://upload.wikimedia.org/wikipedia/commons/thumb/b/bb/Apache_Hive_logo.svg/1200px-Apache_Hive_logo.svg.png;" parent="1" vertex="1">
          <mxGeometry x="1040.55" y="321.5" width="79.45" height="71.5" as="geometry" />
        </mxCell>
        <mxCell id="MGGplR80oqm_p2nbfz-M-3" value="" style="endArrow=classic;html=1;rounded=0;exitX=1;exitY=0.5;exitDx=0;exitDy=0;entryX=0;entryY=0.5;entryDx=0;entryDy=0;" parent="1" source="MGGplR80oqm_p2nbfz-M-1" target="MGGplR80oqm_p2nbfz-M-2" edge="1">
          <mxGeometry width="50" height="50" relative="1" as="geometry">
            <mxPoint x="1180" y="430" as="sourcePoint" />
            <mxPoint x="1230" y="380" as="targetPoint" />
          </mxGeometry>
        </mxCell>
        <mxCell id="MGGplR80oqm_p2nbfz-M-4" value="HFile" style="shadow=0;dashed=0;html=1;strokeColor=none;fillColor=#4495D1;labelPosition=center;verticalLabelPosition=bottom;verticalAlign=top;align=center;outlineConnect=0;shape=mxgraph.veeam.2d.file;" parent="1" vertex="1">
          <mxGeometry x="1216" y="323" width="49.5" height="68.5" as="geometry" />
        </mxCell>
        <mxCell id="MGGplR80oqm_p2nbfz-M-5" value="" style="endArrow=classic;html=1;rounded=0;" parent="1" source="MGGplR80oqm_p2nbfz-M-2" target="MGGplR80oqm_p2nbfz-M-4" edge="1">
          <mxGeometry width="50" height="50" relative="1" as="geometry">
            <mxPoint x="1170" y="359.5" as="sourcePoint" />
            <mxPoint x="1200" y="370" as="targetPoint" />
          </mxGeometry>
        </mxCell>
        <mxCell id="MGGplR80oqm_p2nbfz-M-9" value="" style="endArrow=classic;html=1;rounded=0;entryX=0;entryY=0.5;entryDx=0;entryDy=0;" parent="1" source="MGGplR80oqm_p2nbfz-M-4" target="MGGplR80oqm_p2nbfz-M-10" edge="1">
          <mxGeometry width="50" height="50" relative="1" as="geometry">
            <mxPoint x="1280" y="360.63" as="sourcePoint" />
            <mxPoint x="1300" y="355.7550000000001" as="targetPoint" />
          </mxGeometry>
        </mxCell>
        <mxCell id="MGGplR80oqm_p2nbfz-M-10" value="HBase" style="shape=image;verticalLabelPosition=bottom;labelBackgroundColor=default;verticalAlign=top;aspect=fixed;imageAspect=0;image=data:image/png,iVBORw0KGgoAAAANSUhEUgAAAQEAAADECAMAAACoYGR8AAAAwFBMVEX///8FBQW6FgwAAABmZma2AAD56ejy2tnYjYq1AAC5CwDpwcBaWlpeXl77+/tYWFjHTEfi4uLX19fen53irqz05OTDQTu/KiHOa2i/v79qamrr6+t4eHj09PSIiIjj4+OpqanNzc2Xl5e/MSrExMQlJSVNTU20tLTks7GFhYU8PDwvLy+Pj4/MY19ISEiampoVFRW8HhUdHR0pKSnak5A2Njatra3TfXnIVlISEhLgpqPty8nBODPHU0/Ugn/v09L0wYL2AAAOOUlEQVR4nO2dfX+aOhTHsUFXrcCk7VpBKjiV+VDt+uDa9W57/+/qJgFCAiSAKODD74/7uVQgyZfk5JyTwCRpj1LXLw1rnwXUXTqA6lddiwo1BqDRAKOqq1GdeghAAwyqrkd1WiAADWBUXY/K1McAGmBedUUq08onAKquSFUyPQAQQdU1qUouIaBXXZWKNCME3KqrUpFWhMCs6qpUpA9CYFJ1VSoSCAg0wGlGBhZF4DQNgUkROE2vkCZwmh4BRaBxmgEyQ0CuujZViCFwkrOBShFogGXV1alALIGT7AQ0gdO0BE80gQZ4qLo+5WvBEGDThWrPGW9GD7NBt9udvnW7mjF7WG8cXa2stvvQlCXQAM9rxxn31wNlAviazjZHk04wIgQaVDsbPHk/a+ujoPDAb2eKEITJzKm6AYW13JqAT+FlZFbdhmJaFyLgQTAOejS4RQlgBtoBM3CKE8AQlIMdC/pOCCAGhxpU7IoA8iQOc17YHYFD7QY7JICWX4dVtye/Nrsk0DjErSiTnRKACA4tuhztFgBioFXdplzSBeHP1gjeDijTpD7tHgBE8HE43pG8DwDIGByKk1w4Kjp0BE5RIxBJHB0cAqtRNDUAVrON6wxN09T7trEAzOrLASBYFQEAWztwIjZ/aC/oddjau4fbp8dw++zEKU83CAMAaj4jjAsAEDl+vVXAAExqnVU3C1jBhA5u6o6j+898TBDUepvqWwEAi8gAcLrBbPAy6MPfrGANos67UgYFAMwjndsMZ0O8mOJKkhYgqO2W/QLpUTCJmkDVHQ1kZbr6wBTQf2b6PEBQ02C5gBEADa6FV4euEfSE54AA6JXZsMyabw8AJOUCLXNoej1D3XixVugWvJTbtGyaFRgD0YHtjLAviLQw1o4ayzjUaEvCMui+BTyByPzman7jV5o2ffL+bz2MrEAAu/SmJmsOPryOahXxBKhRbQ68Jx8uIFu6bSQsOdfEFMAgwO+P3QIAqO0VS9TWp2WsdfryI8KgHlu2cSYAbKRCuWFqo1UfGXyZs0IynrIM6rBv3+v5yJAX8obt4HZKymKpwzJInEDK1Yi8TRXdNJMHwLN/tz4a62NxiWM6Cw8alcdI/hMBdpG18sC/QxbQSG/SiM6XVB0g+PMfWKlFxsAK38uaZ31HWadyUFV7x34cBIaxbVM5AHiTGnpJW87apxUKwcquMmHieekwYCkyBrA3iEzAOmuxFpoyqXzqqrKOYPozgVokKfCG7rQByYFBskZvMAgFYGg6yzcvbFyk2M99yXv0wC0SE+PULzRubzn68gQsUKfBfWa4nmAGGUzoHoRbDl36AtlxvDdiBnKFOWswAc+WQzKm/TfEYFJFChm7gUAvsEyM5wE4C+ZJ+cCm6zr0iPuwJ/jq425QwUKCjczRVCo0E45GSr7dEXDSmCEMC9gFiTegKqCSLDoaBUDPvz4QWRQb5Kk5BID9hz4cfUsqQB6AKiIlGLCDbm5nCLW5r5uB8u0JgEMAeDbPBpqkUY8dISj9gx8omTvMmRiCj9CR9LWxWjwxHeFlAjWfTg3hC6o9ECYIl2Bg0RYUTsnlj4MnoKh5AbiS+wxEEpQHQ1EQzvwzwMwhyKssvRNooJfPCkCDra6Ew0a4HjRlHMeBtlzSY8ggI6Q8beb5JgIIwErZXyOaGF3mmQ+i6eIeKP8lb2uYyxdAPSANgGgoPwcpSaQNWM4N1oyu8nlWu1HqGzNMSqefuqIgGsl66DgMN7C1DrSLc02eatPFSpu5OLpolNJqSvyIAEYrI0eVVGohEbYuLYoWDuQNshGmLMtv3uzhRZREjR4ylGX7xi+cFgHQ9X3U0FKC5/RsqtA7XEMzaHmtVWbyDI8A3V2PNu5mJKO/9pipohTx3qIIQ91wEQE+nmGa2RQnf13oA6FU6iBpm7U5xf2g7GUUTqcGL8RChcME1i1tm2WKHcPf+gNTXh7BRZuNSl5W56wSwdCVnBJ+lWiWus0y1ZBDT+pZ5ESjtEm5BOxkAPRqVrCvDFrBtIkz3aFbgpROPi6bQPLURrttfi9B7mqKFcxSdys1AFbKdYl6yQCeqFPWPgAb9hchgWxGfJyWTLXK7QLJ3RovIgYV8lOpPckQBwNgekAb50MlZoiZ2A4PE2jg+intr3rdY0sNk7tAuI5l4U8QYE9Q6DtP7OoaUUicmYAMAscfAqJttmipuKJU/w6kJRMIHJalPw3MkR/Ha/7buuZ7hEXi5Ad9AuNw25ulLhexKBFpvjyAjfICcWICPAosI/ADoD5GlmT1lwqdG5soM/eAn74nzps0YK6ay2BbgWzaeEOoZuOnberjcX/s6MPK9z3sRLxQP+zwnp/fX3mP/e0wZzyBFgIC3v8EzqFpo5hWGNMcpHgG/sPxN1bQ63gGeDr4YR+VxesCpuQlQuhIZxB7deAIxNk2Aj4s1wMwJaeqU7A6PgCCBJkH4IPYe+dIP+Av3kZNBfKDQ4170iQkEKaJxk9HOQKQRB/bIa/Jo12ymXeIHZr4G+jClwbXAEyPbhIkSk6RofZPfD/AxUvlRyxexOu7AWMYD46Ow//nKelLKwDGQvjH8RyAwZFaQCIlRgBG/N4AwO0/XgMQKLZ/KBgAOgwGH46//fG3avzVUtOAE+Bxj/9A/chrT54TNDrQb4htI9Yl8gDoL8dv/0L12MwnynkvQaP6V5/KE50rxmu6qAOchgEIRBKFABvB5bHGgHyZJCMOx77zDJTTsQCBet7LPktT0rUjDwF4Qnu3Xoa90fPRhwBcOd5SwGpzou1H0sfH9s39s84666yzzjrrrLPOOuusk5eKlekkWjsuIJ8iNxTfP1537+SNoXnqYmmGaLezPu1GpCkjcYZMtWX6/l1tkJJTNtdyV6OlcE91p7C+4aG16nan3JcOzVjdu+jzp+pAkSPSbH7t9G70bFlWhElC1YgXIEyq9bXoBfxvT/XhqdQ+JUuT5S6fQKwisgJrMor/WRZ8Hi2JgKyI3hScJRUg+Ligo8VO3ysBE5UXdE+vy8E/8FuECbA9SYxsmFSAIngjyEAVY8cZ/0W8/ATYW8NRMIZ/NfRhD2poYbmohlxzggh0zR6tATzf5tbRjRVgK6Kn2tPQ7ZgCevzXiXMTUJwhc2sL34J94iZso8Yd2IhA5B9VQW3kf3EctZddTu2hXsNF7KBqcu8WVW4C3djKfj9W/dwE4hBpbUMg+3cEPAJkarO6qX1gKEUmwzgBKy+BpXBcIwLsr8MdE4BzEZGcbgdodW3vFsbyAWvgSU4jIDOTNbJ0Ct+FwKN+wEjeMQFWeeYCZL8SbpFOID6p8OtoJxawTwLcmXaPBESfVy2BADszpxBgZkNtHR9I3lhKIUDu4A0m4T9IaicWsEsChkU+cTVU0ggoY3ouRP88BDam4z4lNLmJCXT1QA6S+K05O1bARtkxgfBQTSWwl9lQrPhcIJ4NMeLMmxF2RKCgRyRWXn/AwoNk9kCLv0EtNwHZYCS79SOQYDoVcWSUj0Dk1nUkID3Eppu9EnC1rhYhMIUhE58A/HXFr31cNiyANTQ9lKgQZYr6keCzK4gNp8yvKqo71zInZEi0jWRCi85CU5GR5w9T9Kug9vFiYwVkuMVQZyW8O/0rOuQ+PVWP6xS2QJ91VpqsVqA857WyiT8iRVdx65ClyEhlM1Txut301BET+B2c10aFBAep+nYdp/DjPeWizq/P2EW3lz8zFNd+ZyubfsG1dN28wOrciQnc+OddYALBQao6zfYre6PPu2Yn7apm++stc5H6q51+FSruka1sqpp7J4AK+U7369d2lpZcdNpX1EWtTsYC60kA3jr0Ll7bmesWjoTWRSZqF7UlcNF8DO5ylRkAHD9B11H/ywqgtgQugi6tdjK3BVbuj1/0ZfbS9k7g58V2BDrf/DGQ6zqfWyvHRbUlcNHGpl3Nd1nnT25sFRBImW7JaTfoHlfZLiMjBRclfQ+OO5n9gZus9UNzdTECzesvIv0l512ie5AB3XwVXPTvT9DkJhoGrcB4du4+hYVh3bIEOrdpF7SKEvghvip4fs1f6OjRPwrMAketkC88+iRHV8KrYpXFJWU4eb8E7v0Tm/fo6GvA41J81V1w3l+JGjrNlMglWtl6EAiGgdcHvgUtuxZf9R/dcw6cwHvQlt/oKDcBtg98ydAcqrIlERCPzS/EjcK134rAv8ASev0ok7YicHHxVSjimTZRuEtK+HMv0COZx/6TtiYQOhHN7/zq3V/Sz+ImY6O+fTIEOmKReqgUAfEcHU7sV9sTICNJWENU3O8EAuI24XqFBDKK6QMZL7mXWAKX4rTNd4bAVdbCmnetGIGUK0oiQELDb2QktYUip2ECoVOYps7FbS0JdN6lKIGsRXkEPjOH1J2fah0JhEZ8SwJ50ir3tSQQswOZr/MJ5EDgTbt7JqDmJhAY/9wEiPf8u5m1TY8FCIjDyG1mQyo6bhUjILXu81Qva3TMzoY/Xy8FeiXeDUOg8yi86hcbHRcggAzijaCsn0xEHfqEwupd/v0i5fSKYwTSItYr5u7FCAh1y0TU+4sL4gRSIiM1aDOOJnL7A9kJhN7WX6lWBMJQ/1NifMJbgVrEJ8xBgESh91KtCKikQ6PhkjUu2IYAyb78ksolkGIH/pETmT6wewJhZu1VKpfA5ZVIN3fEDiCrm5uAt+h6KywD68dXYjt+MAQ+0668LUggLRvNTtNbErjJsBbOZthzZMtvihLIKG8lY1sCeZZMvua7AnaZcgh49qIEAl5B9SPgLxDsn4CfjqsfAT/Nu38CzducV5REoO17DXsnEEzONSPQJE7DngmEBdWJQKfZfiRrPfskAAt6JwXViMDd+zW1KSw3gevM7fn+SBeUh8D/B2aJvNzPibcAAAAASUVORK5CYII=;" parent="1" vertex="1">
          <mxGeometry x="1370" y="319.06" width="100.15" height="76.38" as="geometry" />
        </mxCell>
        <mxCell id="soMuXaNBSkupOdt2qPgf-1" value="BulkLoad&lt;br&gt;减少写入压力" style="text;html=1;align=center;verticalAlign=middle;resizable=0;points=[];autosize=1;strokeColor=none;fillColor=none;" vertex="1" parent="1">
          <mxGeometry x="1270" y="312.56" width="90" height="30" as="geometry" />
        </mxCell>
        <mxCell id="soMuXaNBSkupOdt2qPgf-2" value="读Hive数&lt;br&gt;据生成HFile" style="text;html=1;align=center;verticalAlign=middle;resizable=0;points=[];autosize=1;strokeColor=none;fillColor=none;" vertex="1" parent="1">
          <mxGeometry x="1120" y="312.56" width="80" height="30" as="geometry" />
        </mxCell>
        <mxCell id="soMuXaNBSkupOdt2qPgf-3" value="用户标签数据流转图" style="text;html=1;align=center;verticalAlign=middle;resizable=0;points=[];autosize=1;strokeColor=none;fillColor=none;strokeWidth=1;fontSize=19;" vertex="1" parent="1">
          <mxGeometry x="910" y="170" width="190" height="30" as="geometry" />
        </mxCell>
        <mxCell id="soMuXaNBSkupOdt2qPgf-6" value="Spring Boot" style="shape=image;verticalLabelPosition=bottom;labelBackgroundColor=default;verticalAlign=top;aspect=fixed;imageAspect=0;image=data:image/png,iVBORw0KGgoAAAANSUhEUgAAAO0AAADVCAMAAACMuod9AAAAe1BMVEVovUX///9fujdmvELG5LvL58FbuTFjuz5cuTNhuztlvEBZuC76/fn+//34/PZsv0q94LHq9eZywVKq2Jry+e99xWHS6sqk1ZOHyW643qvZ7dLh8dzm8+GPzHjc7tWDyGmUzn+f04ym1pV3w1m53qyy26OTzn2Ly3OZ0Ybm5bCAAAAOFklEQVR4nM1da2OiOhDFoJCA72etW1vXuu3//4Xro1ohkzBnCMr5eO8WORAmkznziDq1sRnv3qdRs5i+rLqT+rca1fz77S5LTBo3TDaKstQko9Wfp7LtTnXaONEbYpMvlk9j2xup5l9qEZnevz6F7eQ9eTTXM9/8Y/h4tuM8ewLXE1IlXs5Sth/6SVxPyGcPZdvfmyeSjSL19kC2w+kDLTEJ8/4wtoOnkz3S/XoU25fnLuML1N/HsF0/00D9IhdYZpztpB1kozgaPIDty7P22TIMvg/BbF/zZ7O8IZ83znb6DHeRRgbvuijbsXo2xzvk6AkBZNtvw+ZzQ7xvlu2uVWwjNW6S7aQ9JuoCg+1CGNvW7D5XmFVzbJfJs9lZ0FBsDmI7as/uc0X60hTbdZt2nys04i4DbIdtJBvF02bYfj//VEtBfTbBdtM+E3WB4scg+WwXbdt9rjC78Gx7LTnWEsjZggmbbQt3nysydkiOy/bQLge5iIS7CzHZzttqos6Iue+M+e8+2rn7XKHWIdluA5994tBGQPOCNjy2+4C7T2x0Np2mOqghSD/Cse0G3H3M6PN8bJkcspB8k00otoOAt5X8hkUHu4APMWMFbThsZ+HYFgP844CWXvfCsJ2EuyfdLV76EO5YFceMoA2D7VcwE5VawlxA88eRDqrZvoZ7tbZD+xrw002qd6FqtuHEgWxhXz2g+51WSweVbAOKA+ZgX34X0EnLt3XZDgPuPoowm+uA16+WDqrYrhpm2w0Z7FJd+wcQtkHFgcbZRqpiF6pgG1QcaJ6tqUjG8LNdCjaITGmtDGVq2WzT4yW0ktivCunAzxbfH1L9r7vd9P6OCBZMtpn+WE7mk+VOwLdCOvCyxcUB/XHd4sd2fiuPrXq/XmL4D19a/qCNj+0Q/bE4uTOKk6xMl8VW7e7+7zhHF5dfOvCxRcWBNCp8NROLCINtaSluInQ1ewVsD9s/oINsFv3iBT5LTDhsyyGXIZw/ajzSgYctKA4QeaWl8BODbbqz/sUXaDx80oGbLSgOaOJHVsVlyGCriSyZD5CuRzpws8V2H03t673ifXLYUssQjOhk7l3IyRYLK5BkO68w24x0/XbY23UL2C62c+gHCtvGL5YwW4c6iS3meISyhcQB44jmjov2lME2cXxzb5BldkoHDrYb5OyTujS2UkSLwda47hPbIBLHLuRgi1w8HvXpi8xL1oXB1qlfDSPEaKbfCFtIHEhc54630iPjeBeKiOac8QcyzDktHZBsB5aL6yPrCltbGfksP9np1ncR144K+LnYIuKA03WZWZ8+7wyUuBzdb8RS0dIBxRaRpl1njsGLvWkwz7eJS69DYr20AaD+4xuw+zjctMmIuAY3dmH2tEmFNgoqnEuxRcQBh1HZ6nqRmow2fJD8RgnYBFtgwTjW8ZKuVeVH4WJDLxnEd0//cdgi4gBt6JeOFQfEHGN6W3Ndmb45Wzqw2PaBj5bW/501NEiENTYkXcSkEAK2xRYRB8jcDrcbAMWT45gyVXPk5ZbVYpstIg6QiunQ3SABi56npKoDKTVp+fxYZvsCLBVF+cd79wVArYA8WUEnUet1lNgiZoDc0XwlNKgyQnpV0C6Ulz7+ElvEXdHEq/U+LVgHKt/sCeWDlRdZKfWhyLYcE/WBUpg8H20kYEumBUFR7qQY1Suw7SPHDEpg+ue9E1zjo1w1KMxdCtoU2CJ1a1SWQ0W1qkDRpB4pFMYoSgf3bP9AmxlxDq346gVsyx/eCT0oJFeQDu7ZviMPLYPvXKRWE+4flohYOH/fsYWkacpGVYWOJGypLHpMjbv3uO/YQnEubZ8HKo8TokyExNZKsIyB++f1yxYSB6gAdeVxTMSWerli6eDGFhMHiIVc/cRlWSZEQB1byndv5sYWqxwgtLjq9BsZW6LEFrPKd9LBlS0U86G8RoZHJ8wgsuunIe8xulMOr2wx5YEQDRkpfEK2RPOsPZaOcZMOftiC0jRx/GHcgJBtZp/8VmA2xjUyemE7gHYf6nFzggrSXDjrUI5+uDfp4MIWrRywE585dy1la5tEOPn/RzqIuC+mgNS66w/Gdy9lS0SE0ESbOP5li0TyTiB8dU6kV8qWkLAgl/6Ei6U5sd2i68J+2KzVIc5hza0/w6va1fyHLWjPqaznJeemxWxtp/wTThI/SweRpG7NNsms8lwxW/vpokY5uugakaQoxJYtWCtLzNbe3jd4duupG1Ukqfexc7gWnCcmZptZApakOV0+P7IVtLHILC+ZZSLlbK1T31BQkmXGR7agGxVRh1te8ETMlhBOBWyPzyxC83LJH+cdjmtUUVi+o6SWRfUjQdGGXWXE+4zkbI316UjKlPQmmuGfrc2Wd+CUs7X1NUn5n+pG5RQuBh7P1n63ErZmFsGOVFi2vDq+MO823UUj/K+kbKmUTd653H63krrd7EvwR8QOxGu0RSWFsxw5osGsxCbHC8EfRcSGwDORdhCA5wHai2kgKfiO3wV/RBWh8FwUO5GWVxVp+1KivjnHdyv4bolkZ2bIspygyjx+2U8Jy9/9wfG7Fdhk4rzJLQgv/iW3P6R9BhJ1F0i/o3+CClv7fMs9Xcf3OUyf3Fu2ty5R2W46k/hSp9NE+Vmzf10vlmcb1+/t+X9jSUGi5l6mGwmiAET9GXACy5RavL3tFTCRRZd/Do4bXi6zkZyBqCAgFACJU2iiELFPS6xNpIaS8y31sEP2rSjD9sH6IpO8OJ7mJfdpB6YkHwQX9hYgCEudH5ooLkUYyX5zfaSJEoGxxEid41KSRjSprSA310iaqMnl6DDWZd6E8WSqR0rYxhX3IPJMJLbmJ54sMXD2YIR+U2yJhBaJ33jO3RPpQGRHmKYaDhPKOK6L/OTJizQ+siADyhsEQMzXgBW+e40P12+paILkHhggyi2H+O3Gl0RFmTZPpn4EbKl2B6JURmAQ77V5OO+Cri1qop80VYSDL6Ji3oWgF3RuF7AIrF31z9ivVqB4Xau0ZPlSEXXqE55M/L9CzJrAT3vlfCk0F44u4QveZTm21USmnliAlQuHd0im2o6Ent9A1W3j54/f6gRhDmvkaBkS1lCRHRphz4/KYcV7olJNfOFn5r3NlFjH+D5H5Sfjrja1CXV6AT0qshslvHro3HO85R1ZfbsK9nY11ekDf7X32dzimpHI1ewn1NxJuh0M/NW6akZwv57sTTGYBrFU9BRU3Aty1gPBM8rosvnhKADddEH1XsI9XHetF1bHd74W2URnHtWmm+7JRlN/4dxVTx0fVKN5Bj0nYEh1u0BgyDcrOEKXvrUa9bcnOHpjDhe1TJVyjPKF+4aXW4/XqK0+Qzu6ygjabN6QO8bO4T3hK2qrobr5M1z9lg7SafSZq6kRfqC0arTq9ES43JyrIfUmFq1mNXU8vgE+nMQKJ9Xqd3G5pKtl0OAb7qIaZe5R8l+w5avudwH1MrnA2RCqs51iX1qsF87OkzP4oyVC/PX61FxABPNvFzP8pRKryD09Q3Da4PSpkehCno7Ug0PKk6WPXD3dcQUDiqjDcc3+Uj93GnvGQAzGI135daTJ1NePfkJ2FveD2V9KEEzLRt4JgK/fRrnV+DjV6c473mcOSfkXkE106vaF+0E69Q88HCx3kVap5QtlqdKj1dLfeH8uGIxFj5Sp3fPvRrdypsmku3tXuVbKnKGUzs37qlc5wHaeCQ4Z9u7jZAv1c/xBFrHm7s43y+56fTis193lhjV67A+QfPN7N0A/R9Egr8ywRmuheJWQdY35CtCH9Yo45wybAjEWRfVcI9xC9Ni9we32SbGTqQ+uwUhB+iffoN75s2gZmMMN7X9uw9W6Nkxv7BtS4/YiYfSULOKD98aWjlOLk10grv0PqYbm7PobrKf9L0wU5PX2jDS25RmHG2xewS/i5I03w9ODyYs80iOaV1BDr0v1gTEK0I3hKpEHLY2jC3gFW0ku7+0nzaeYb/9Qa36qcM5IvXwvFa8dzd/9GM7SetFZ3/j5oPOBCoiNXrGHhV+x+c7riWbu3aeKbe3EAqMXXeAFz8f76nN/BeSznwLMfcyUfuux/Kt590uLDgAF1JnrJZrZZt2AShaHrfcVD19n00ToOBXhnJ3AYRsoxzoz2ixW3S3xkufb8W6vtCDuRIFKrwLYhpu1GKdK52r/tputx91erztez76/9jrXRhB0cqHmrMWgczSjc23MKUZzgjGpIETihXeCGYdtyBmpTaP+jNSQ82+bRl55HHnkbOOGEWK2cUNJ1g0gyNzqgDPJG0WYmeQh5803iJge9wazlUgHjwc9EEjAFmvP/Bw4EyJgtiLp4MFIKqevs9niiUqPhkscELEVSOOPBWP34bMVSgcPg1MckLFFOxY/Fs6ZhUK2spYLj4JbHBCyrR+0aQ4ecUDKViwdNA+POCBl20hNYhD4xAEx201b3WXHhOB6bBsrFa8J52jfemx57dAeDb84IGcbvCYxCPziQA22bdyF+LsPzJbb6+uB8KTP1mXbYHsWIarEgVpsw0kHgUA0ogjHFq59axiV4kA9tv1WsXWNkQ7Ftl3SgaegIQzbNkkHWbU4UJdtxYTBR4Lo1xOabXt2IWpIXnC2klEBTYCuHAjNtrNuB90ccZDlbIP1AagFhXlRcraB+gDUgnEUJIdn2xlOn32wpzsmNMO20xemwIeCgnfaOmzrVYrXhrhaQ8q2M86f9fGmRE+6ptl2Jgv9DCcyyz/kdSlytp1OL6qfholy1fs6VQt12HY63WntFFsAsckX4kUcgG2ns/3OgmYqupClKhn9hbO7A7M9YjPevU8bJjt9WXXrUj3iP7ZavqFNdSt0AAAAAElFTkSuQmCC;" vertex="1" parent="1">
          <mxGeometry x="1590" y="316.14" width="91.49" height="82.22" as="geometry" />
        </mxCell>
        <mxCell id="soMuXaNBSkupOdt2qPgf-7" value="" style="endArrow=classic;html=1;rounded=0;exitX=1;exitY=0.5;exitDx=0;exitDy=0;entryX=0;entryY=0.5;entryDx=0;entryDy=0;" edge="1" parent="1" source="MGGplR80oqm_p2nbfz-M-10" target="soMuXaNBSkupOdt2qPgf-6">
          <mxGeometry width="50" height="50" relative="1" as="geometry">
            <mxPoint x="1500" y="356.75" as="sourcePoint" />
            <mxPoint x="1550" y="357" as="targetPoint" />
          </mxGeometry>
        </mxCell>
        <mxCell id="soMuXaNBSkupOdt2qPgf-8" value="读取HBase数据" style="text;html=1;align=center;verticalAlign=middle;resizable=0;points=[];autosize=1;strokeColor=none;fillColor=none;fontSize=12;" vertex="1" parent="1">
          <mxGeometry x="1480" y="317.56" width="100" height="20" as="geometry" />
        </mxCell>
        <mxCell id="soMuXaNBSkupOdt2qPgf-9" value="搜索" style="shape=image;verticalLabelPosition=bottom;labelBackgroundColor=default;verticalAlign=top;aspect=fixed;imageAspect=0;image=data:image/png,iVBORw0KGgoAAAANSUhEUgAAAOEAAADhCAMAAAAJbSJIAAAAwFBMVEX///80N0EAv7P+xRTr6+wrLzr+wgAAu6//78XC7er+wwAlKTUuMjwaHy3+wAD+xQD/8tD//vrv8PBeYGcgJDH/8Mr/9+P+1m3/67r+zkT//PLN8O6T3ti36eXU8vDt+vn+013+2Hb+0FD+01v+23/+zDn/89f+5qlDRk6Ki4/BwcS0tbjT09WVlpqjpKhvcXcOFSa7vL9/gIXf3+FWWF9RzcSk5N9519D+3Y7+5KH/4JX+ySb/7Lz/6bE9yL5m0cleGg7/AAAFZ0lEQVR4nO2aaVvqSgyAoZUZWsBShLK3CIrL8Z6dzQr8/391yr4IPoiTSejN+1U/8D7JJJl0EgmGYRiGYRiGYRiGYWCodfOldPptPK6k06V818P+PcpwvfxoWA6da7HHtR22hqOS52L/wi/gepVhNXSEsB3zILZtC9us3o0vUtMblcPIzT7stusphNkadbF/8WeopW+do4E7jGMLp/xWw/7lJ+FWOqY4IXQHLIXTHpOXLJWj33mO3oLoXLbS2A4fUHs1v6K3juSQaCvplk+pK6dg260Sts170u3zDt9hHFGtYBvt8haq9JthC5OQY7oq1OotEPdEHLtK83PXsZrHtovqZxnMz5zlage7rj44gH5zR+cV08+DOYC7iBBvZH2FTNAN9vUdzt3Du9cQwKUjShgfVE0wJykK7afR7WgL4AJR1Xvr6IYaA7jAMXX2xrHODF0jRtoEh9cIfjPFsibBsuYjuKXY1nEY3SpGhi6xQ3hFT3+N2VF0oDujZ6IKzhRhS6oHPWifgIBU7H55z6QCAbfEQU/RJTZUFGsEUnSBDVNuakQiOMOBuPm79yQO4QKQvtimE8EI51654C3aqHYY0VIsOCImaArFxSZPTvBNrWCN1BmMEA9qBRNtQmV0hvK78JBYjipfS5WoCaqOoEstRVWfwcQtrTIjxqoF06RyFOAC7IbYUtvYofqR+45SjoqO+oG7i7QaPYQDshLGXB3uIdoQl8IKmTIjHJBnCy621xJbhMqb4IJXCiG0hdNRfJNY42IfQtuxheg8wG3y7949XdaLWS2PYDfcpTQe+a5Xu8S30QzDMAzDMAzDMMxFUbhCoFDQaHiTSeknm3y8eXrWo1lIZpMYZLOpYu7mmwbDlxyK4FKzmPsPPJDfM4iGEZksdBx/pHANk8niX9gwIodwRqr4DCh4hXkM1xQBM/WliG035+cvMEPsQrPiJ1ii/kYvNEtSV0CGNzj9/j3ZRyBDbLENxe8gggUSpXRBBiRP/xAyTD1BGD7TaBYLQIL4jUizmJOBOIlU2uESAMMnKu1wTu6PekMyDX8ORJri3522Sf1Qb0hmpJkDMdf8JWWYzKi/CxMzzKnviNQM1RfTR2KGL8oN4x9DaoaxP4cAtTT+/TD+M03859L43y3ifz+M/x0//nua+O/a4r8vjf/Om85QA/bdgkzLB/v2RKUhwn0/jP834Ph/x4//WwwC9yfo9zTYpQb+TVT837XF/21i/N+X/g/eCDMMwzAMwzAMwzDMFhYidd8P4A0HEhdjMu3XYRWlgU3k2esDBrOBrxghjZ4Fpogtt0IafSDDJokgzpBGE0Zxgm22QU58CEOfTBAjJEiqDkgp9gDKaoBttQeAokUpiBEAI8AU22kXiMOI7bQHgCK1PJUN5Yo0hrcNAIqE+v4c9YlKrWUAKNaJ5akhlU+pfXKKyofUKTFFOVVtmOhhO+0yUS5IraBCbDZIFVSQqyIhRfVlZomPbbYCbsVIQ1HCbd5oKErYJTEBReAtOH65gSoyW0xQpxsNn2swBzg50SKIt2EEmEWP0cQRVH+1Pw5KSYUuonv0NGeqtiO4oa9XUGeGrgj0tQ2powseQteWUQ5w/CJ8HWEE+m54KhpOI8YJ3CaAnXBAvhh+Fh+ucciJ5h54DAvmOMoJ0OOEc2gayh3BHl+ci+I4korfCn+qLpA9Iudvn6ChwlEaAwL18yjWFwMpjSnkJk0JQbN3rqQ0ek3K4dsQWANDftIy+v/phegt8fvTky2j/+s1UIfPcwmag4nxoefsb5NB8yLt1gT1fmM6f+y7/8bZ6A36VnBRmfkhgV+3LKsZMX+nHh8xhmEYhmEYhmEYhkHkH8x68UjfZ4TjAAAAAElFTkSuQmCC;" vertex="1" parent="1">
          <mxGeometry x="1780" y="190" width="100" height="100" as="geometry" />
        </mxCell>
        <mxCell id="soMuXaNBSkupOdt2qPgf-11" value="推荐" style="shape=image;verticalLabelPosition=bottom;labelBackgroundColor=default;verticalAlign=top;aspect=fixed;imageAspect=0;image=data:image/png,iVBORw0KGgoAAAANSUhEUgAAATIAAAClCAMAAADoDIG4AAAA3lBMVEV3e7P///8AAABITImustV1ebJyd7Hz8/OqrM5vdK+/v7/LzeFFSYdwdKd0eLJucq+vstHl5eVrb6Nzd6lna6DX19eIjLxgZJtbX5eUmMKbm5trb61VWZNMUIy6vNdpbaJ/g7J9gbY0OYDh4u6ipsyansbv7++Lj7s/Q4VycnK0tLTY2eilqc7Ly8vy8vdHR0daWlrr6/OIiIgmJiaUlJRoaGg6OjqBgYHDxNyrq6tSUlIxMTGurq6wsciYmrlvb2+Iiq4vNX60tcsdHR0RERGfoL3ExdZ7faaKjLBfZKjF/7AIAAAWLklEQVR4nO2d+3+aSBfG5bUQiRqNGi9V4z3aamhJL7HbJtumG5P9//+hdy6AwDwDA4Jp99Nnf9g2jTB8PXPmnJkzQ0H7o4QqvHQDfj/9QZZYf5Al1q+CzLJsezZbr9dlqq1P5K/kxzPbtqyXbiTXSyIjlAii7WX91atXG6JXjkobpjnVgqhHtaTq9ealy215PXtJei+BzLJnBBTF9EqmUsmDxqg53Ci49rI9Hk/Gy17psry2X6D5R0V2QlnVo1AFkW0EZNzYKDjCbTxuNpvjXn13XKM7FjIC61KFVbBz+pAtEDIHW2PUXJZ2s5PjPMoRkNnrcj0BrGg72yPzmDFqzWqj1Rnfb9f5P0++yCxiWwq0NpQKwUE4tCeOCuQ/T/Qf2tz/i2bGkRFo1cao1ek273f5erj8kFnr7asoWqX5gkKaFHTDMHRHBSLvj7r/p85fyf8JQoLJh6zpIiPQGsTYuoPO88MstwfLB1kkLoKK2BIBpZ8RBA6PJPJATji9ALLRaNRqUWyD7w/5WFsOyGZlCa4NZVVgJpWGlFwTv5UxZK1Oh1AbDp532Q+mGSOz1pcQ15zAOjO8PpaLmhxZw0VGoBFqlepdxn00S2Q2GRkxrZxh7aVXg8i6jNrgMcuBNDNkNuqOiyXxWcfC5WEzRpyYg4xouBreZ0YtG2SWyKu0aE+ODcsnY+QQ48wGwyKhlk0PzQDZiei/qHW9IC8XW6vjIRsMh8PKdHCXwSB6MLLZNjwu9n4FXI70UWfgIRsSU5tWdy+LzFqHOuR8WTB+EVqezI6HbFgsVqaV+8NM7RBk9jbIa9EmvH41YEyEmkOMajVtHmJq6ZHNghHFon1wb9TDyoYXl9n1kFFTG94dHdk62B/bhYN51Xjy7dekli21QdFTZbW6T5kYpEJGYgp/ONGbHO6/9DMUAdjtsyxY7dUZVioutdX0eyqnlgKZVd4EOmQm/quGI03LOPzSQRldH7QfTymgJUYWBNbLKL/WZe1Y5DCcEFPz+mcKaEmR+YDV5+3MAoqzHrn2/8LKCRn1ap6pVX58T+jTkiFb+yxsMcmw0xiXmnYVJvaO3HGS3T0C0vf9czW9zw3ZLIce6Yi6suswslviBmpZ3iWoTtGDtnrIBZnlyyR7B8cUIdVI53gdRvaNfEs5IgtAG6hPdCgj227ysrACDWLJHd6HkV2Qu5oZ3ykkD1pl+qTq0hSRzXLrkkxnS3KPf4D3n2ceZITlQVtNFXunEjJfn1xM8hjCjLqmnYSJfSZ3zuVuQZGBwOmd05ZSwKGCbG9imwzifKRaGXj/N+TWOfdLLmPg9U6VzFMB2d7E2nl1k74NvP+XvL3/XqYb3E4b8R4tFtms5PXJ3CZ29DNyo08v4P336niGFjsvFIesPN/3ydzaq7fJnT4A71/K3ft7MjxD+34QMqu+cYysl2fjjRLw/h/I/dvHnLB0DW01iB4FIpHZ802pxE0s17abyPv/TRpwPCOj0p1hIKZzRiFbLzYcWa4mRlQjX+sX4P3tI3l/T66h/XhMh2y7oAVepRwHSlcmudvfwPuXj+b9XRlOYDt9SoOsvpizmt95DtF+UMz7fw0jOyFNOG7HZHI656qTHFlpMafISKeMIUbLw2IVGZ9Q7y9Mlv1DftY2A9c4i7iIUiPOVMIkp3OuhrIITYLsZE6IUWSxY1ZtWYrVZr5YTsx+zcRNpt7/IozsE/3agtfotSc1chHwHZqTjUojeu0z/PngxZwIrSIZODEyixEjyGJHSlO9zsFabxeFPnBPtRnw/q8lF5ltS+1aaOXJrKs3YlYuTfpm5CqMzkO0ygozg8isBSc2j+FFGnup3Fgu+1JcaauRn78JI7uOeu7ygljs/hHbCRthlZf9SFuLZIaQnSw4skW846fhwYmKfJef9fqB67In/hxGdh55Dc26NDx7Zd9bwkZYdTNqOOaDAO6bCNmcI1PJKamBCMkh0j9f39+8PXduYPf8lmbMNbBUgvTz8/ubbxduM+t9txFrTXurdIEP725fe+Zbr0V0T4dZEYwBANmmR6vs5z2F0YUZiDA1GKFPb/k9ymf7+MHcAu8fpXevOftZgT9znzzXTaLPX/Fvrh0RKjvMBirI6g4xlXVqmBzG6JY9r7X0+gX1/mpG4nvqU3YRZ3Qif/wr2ef/ug4aqpTZqhGPbNvjWzmU4leYHMbqDXMqG/cr7pO/3Ca+yGdGnnpbHa6Bxn6edfByPLPnOGTrZU+dGE4OFcS6Z8lhNtGA91e8iN3n3l9YA1XQG/a8Ecz4uCksCYSQWctejzJTTJJgeKDc3Dnrm+rePyySuGuXZsEk3v80zec/XMUx4zn6LBIZ21u1UF0TYd7/Z6rH/YvejdX1UO9/nuoaNHPXdOb9P6a7AO3cl/IxQOdpQDEK2eWSIVOdHYPJoaLea85auHqIIOinRue64Rqooq7cLw7L5O7sSY5s1mbElOdCE4cHft3S560lDxH8Iu7M6lPvnyTQ8eunFl3EwHP04JRjANmSGZmi6y9IkkNl0XF+wr3/u5SXoEud7Xo6789FnWo9Ig9whk0Zsi1Hpj5pTacGU3l/Jjq9U67pi/Sdm0+qpQp0PBF/aJnyJ+bubPUdI7PGDFlbFRg3EGFqUF10skKnIUJK709EItoyWgNVFzXUqIWsUSU8avqQlfiuWvU5WBweXPh1fX36+lba7eiA00chwvvXAX28+VsSuNHlYQ2kua+DrTj9cvNe5u4uYlaYWU1ypYWQzcZsJ3KCtSTo/b9qQNe4+xIbsf9FIcIpuMYpIn/L/00IdM7BBc4/Qmp0JSuq8E8PjwB7ZAtGLMnKIfX+38IteIOQEQeNwgA682poIEFETwzHVX43Mc3FjcAdWItZZGBlLpWuiIwb2VIdGK+jE5LDL3Quy9N2u3a9AIo2yY/pXBf6uT3zyZmCEe2MIxO8Py0Z9Tei7F4BhUTXdBSKes5i0Mw8ZBt2QkAC3y8JD+haWt/cq1brT0oMG5hXo8MVCBGoSz7r1/bq12goASLeW2w8NzReCzaisGB1iiCz+kh/Oeo5WXBW6YSRWZPERoa9/4k4AOlGn0YSIHjis2fCY1AQoYfQ+3Bk5SsEwhooue66Fm5EbWJDS6V5SNTilWtmsxCyS9YvE9VAwORQUklh9qCZfcRd9i0YxPDU3Dd2AaEC5hwWDemmhcyMDljRgx4zMy82c5HxkzsSAJMkh8yjg/vTCjKxX3FXJIwM6IkxMjbpBb0/KhmlMSCYESW/HRNaBVKAguv820k9GfP+wiD2ms9hia2F6egndnOlJ6aPK17gCvp0VjIKGsFmXiCymB0ZLDZb7QLI6mNqZsnqe6j3F8ID2fBDjUR0ZtSNYO8vNAXWhvJgQkhzgS/kyArQmcUjYzMalacAsjFDlgRYASeHskoKOlaIfYIhQ1skxCeuobyIfV5Mc5Ev9JCJqwQUWUz1R9HXMzkyu0mRJSuAg8nhPzK/gF3R3zBEgFskamhk/Ii9v6xkVG5lcbM3XTZmrn3ItuzcoWT9soaSQ+qc4PInLVMXYwTm/pWKZHFt6Gki7y+bR4h3/4UWGzMffcjmDFkSYNz7C+GBzPsz9y+6ImYlQuZHOvcm/MTYSrH3/4oDHcJ9iXxJfJDhJJpObl5wXBlFlrCODIUH12IMyYWnq78hI4FPDKuDuPeHaS783jB3ugwRuzw03DszhsxqsnPAEiHDq4dXshQXT1dfI+9Pn1h0ZWgCmHt/lObi6Rwc6dzGJUxULMyY2h6yWQpkcAcl86R49QGOVVcoRIBP3EcjI/f+gnOSloziiXelLRk8ASh7yNYMWbLdotD7v5fZuGSxUkPDIHpiXBvKp9WEq4I0l1/EQNzVinK5/3/wkG1TIIOrhx9l6zU16IpYxxKmB9ETGxvkhdi0mjAOy73/At1ObUuGuR8yGbJLhiwRMR16f/K1r+EX1kfxF5uHUNsigb0QMzJhUIG+kIp+b2Kg805GOCCj4tVnMGT15MjO4OrhOVvxF8W+X3H6/gKFCDS8Fa4BJ4DfSb0/3DCgm/B7k/aM4If3KRNDVkqODO6glGZr/Rn6fmmqAItkxdAOVgfdMGRCNH8t8U1sbV+IhpkrU9iScTgymCXLIpwz6rzFEIM9MiqSFZ8Yhu1vk3l/GnuLnZt+bwp7i7mVNQ9BBndQ3khsnP4ymKdik13C144SezzgYu9PfSHKf1hFrbhoQwMVlX25IStL7svwDkowf0xVu0Tdis3xiCDgE+PqIOz9aZoLlr+NNnKcLDRU2fcT9mXJR0yWraH5Y+D9a3NkDE5UBbdICIk9rA3lyBUnOY0JjHrZ7ZYKNa58xLz3kO2qSeMyde/P1jlQOPSBPbEwDKp7f766pDbJWVvCwZV9y0r78cJx2braTIgMFsnSQT/Ey+z3bPhgbuguPAWe1kUjo9z7h3yhUZuU4eDMjUzpYIlw9G83xs1kyOAcKctv9TMiXTcM06yZ7Uu+1wAslfOgSgzWUGJvwAngC+j9acXY0jzzWkGXUfnUICrrulLd9MlyTD7HyGcyqkmdGdxBSeePeYVabzGvX5bdhb9zMRjyagjCP6ZjvpDY4+og9nmY5jpvoOgtSvXt2t3sIDT3fzz9iJvD5grPZGjsjRYJkOEsGVdSXMECddpYG4CAiT2cAuD1MijNRYKVg3QAmcXO+zDxqlltj+yREkuADM/VgZaenOIqVtotZ2jWEa72w8m2W9zl0Xaxa8m2Ajr3pOaOjH0k6yDbVZuJnBmcI/0cNK6L6y+30nJ+ullCRyBQYs+CQGEA+cJuAzHsv7Hz62830o0ndAAqqe3F7ghz//YoWc88rEiWd+E5raQWhkEU2uHlP+b90xfJct8QVfXv10BYYWLOrJkAmXZIkSzrPOU+BKGBBTLs/dmungOKZGnHtlRPYa3sXZmL7K6aBBn2/sq6Zl4XgmCJfVhw+wj3/umLZJkrVF2GbPnrWNyajBF7l4UiMjpHmr6KmhKzTR0Og3DyCi7/8QoYpb2gSGwWRfk0i4G/KM+t/BknQXbQFgnqx2xDUgVzChJ7NmUvjIwS768o9umlKjHd3y/39WWNBMzgHKma3p0wYrRDoGEQeX98gCoLJpLuBQ18eKl8cEl3n5P7kFlJema6HZRULNCc0bbidVANJPYG3D5ygPf/6yRRr3Sc/9QOIdMeq+rMJlq6HZTvWH5QZrvxofeHJ8nCCeAP6b0/S+ftgjqxrr9UyofMbikjS7mD8iufu9jwUAgOg3BaF04BfErr/Xl1bTliD05YTuH/WkCm3SubWaodlO95JjObOB4EroOiwjDm/cXtI+xqKN+P0lc+aGiLJKficyPb7zHfI1M3s+T7599/c86oKLlHZOB1UFQki8t1Unj/zx+deYOykeT4JSNkZP49TI+qg2aSHZQffMdjaJf7tkrPERcm/CK8v2qg8/Pd7ZcL92CRdcIXL7Can4pvF6sP2UmrqmhmGkgOX5+GdH1xceU//8SuGz4Hwvzh2/BnNOD9qRs4Cf8id4tCmvtJaMT1xXkgUd8mfVNFJzhcBpFpO7WuKS2SjZC9bQdP2dEn+BctIVhit8NCk5wRssoLM4HbZ+LdcuU/NS+w63esNALA8OCnvKH8QCmUawOBolXJCyc0XCYlacSsXGr3U7wKhXfLof9aAWR2R4WZtEi2HNB2e1ma9/iJY/AyvW05rC08ibU2F36xvJVtF1uHG1HfLNqGwrFlUF1hA2v4BIOtijuD3p+upf1rhmQYUSuEZ+FfN2XdxhB/sY/SXLZhoCY0Iv3riVq8WwZfoRA6J2PZiGWmwx2UsTv0Mhac5Mz6VG1+5kMldCxj+ACbajWOWcIi2ZxEl7jUi2TTiW/FL66saGSzThwz6RYJpbOosnoaeExcxqdqO+fXlLVoZNoujhlMDuP3NGYrnOZqmZ6qzYmJ59mL55fdtaKZwTnS2J2zGQtOcmZ7qjY/VypwQoYMmXYfyYyVT8Ii2WN7f1gkm1m/dIg1RT7oLMblKIIZTg6vJEWyeYkucSkXyaaRQ6wF8MBDUimzqoQZzJKZ9z/mQfMTTXISQDbfm3uybBfRwUfxjuXM5EWyRxQuBZIVySa/PPf8lQE881ly4LOcGZwjfQnvDwOdTLy/6ZyS3cVTDbJjxZctCTPq/YU50qN7f9lJAFn0S/dccdlZ7NKT2Om4CaDhHe2yLRJ5SZrmZvC9uafXV2Vk5Of9lzqIWbItEnlpokm2SByMzHH8US99iXqrBGNWDTKD3j/PtzLC54LeP4s0t6XwJo6od5fMWg3B0KD3vzm295cVgiY4fA1K6X0vkW/IscatsKHB+gjJFoncZCLvT9PcwxphFt0XSkS+VSjm1VX3vHN60FhB4XlY2jHfy1Xg6dJJuBHKxdUyua/ji3rViwIybddpBJjVJG+ROLRLJJIheYvEId/baOh2yrhX8cW+U87tnA40fQIj4ogjgPOQCVdQZumJuW+tKq4GsW8WUXhz4Z1jaByabs7rgtrHfmFSbSk2opdiAclRp+KamHDueipk2qzpGFqVGRp6XU92MBR1JjYi9aSw2yeLq6LKG3/VXlxbdw2tqlro+PvIezemkokpI9Ps8X8UmvcGVvWXSisio0ucrf8eNH0PbBr15r10yGiMNqr+p6ARC0v+Cu5EyPy9s1p96ec9WH5gXfUXvSdDRk+66TT+G93T9LpkcVWJfb3vAchINjDaQ/t9qXWGe2ArlRdvH4KMjgME2u9saka3cgCwNMgItAaF1vg9nVpr6AGrpAGWDhnpns3O6HekZnaLnoFVpsU0wNIiIwPBuNtq/F7UjM7ewOgomczpH46MZJ73nRYzNQfb8fPMJArwIoHrU5KwIitkmmbdNToONIfcS4ORKMiLuLD76Je554dMo6+g6/7q1MwQr2krbY/MBhlJCYiptRp+/UJdVG8N/LyIB6scZGDZICNa33cotdEvhi1oXqxDPoUrEtMoC2RE5eeOOxiMRr8ANrNDMsggr2l1p556RykjZGQs2D13O50RF0dH/v8C2PRRdxjExXg9ZMNLyxAZVfm+0yXGFlLjePPcxLiKIVwkoJg+ZWRfXJkiI1qXGgPSR1ujVlAEXK6wjBGgRc2r8pyF//Ira2RENumiXYpNVA4Wp5utDh0Ww7QormnzLnaJLblyQEY1exgPCDeBWYeKdF0j9R4ZTwZjVQSwGK4frcf0AX6kckJGtb773h245tZxcAVEzM40E8HTDbPf6XQdVCIr+kZ7Yl2NvHBR5YiMyt7dVweUm0RdVy5CouCurRFj3e0OBkOHE0bl0Pox+P6QQ2f0K2dkVNb64ZlwA+C6QQ38GhJEe2FG/p5IbGvwdLfOcmiU6AjIuGa7x6fOkJLrIlwCsoEfWVHKrMJgFRv3D+vofcfZ6WjImKzZ7u652h1SdIMoXLHAKCrCatV9enw4hmn5dFxkjii5x++NLoEx5PgigO17JfViK0ZqWhw0nx9364NT7DR6EWSuLHtdfrh7fH5qkDGQ0KiEtHI0pVpVht3G0/3jAyF1XLMK6UWRBWRZ9my9Lu92u4eHO1cPD+Tv5fXMtqxjuapY/TrIfhv9QZZYf5Al1h9kifV/K8DkEqSzlXEAAAAASUVORK5CYII=;" vertex="1" parent="1">
          <mxGeometry x="1780" y="430" width="111.28" height="60" as="geometry" />
        </mxCell>
        <mxCell id="soMuXaNBSkupOdt2qPgf-12" value="" style="endArrow=classic;html=1;rounded=0;exitX=1;exitY=0.5;exitDx=0;exitDy=0;entryX=0.1;entryY=0.9;entryDx=0;entryDy=0;entryPerimeter=0;" edge="1" parent="1" source="soMuXaNBSkupOdt2qPgf-6" target="soMuXaNBSkupOdt2qPgf-9">
          <mxGeometry width="50" height="50" relative="1" as="geometry">
            <mxPoint x="1700" y="350" as="sourcePoint" />
            <mxPoint x="1819.85" y="349.9999999999998" as="targetPoint" />
          </mxGeometry>
        </mxCell>
        <mxCell id="soMuXaNBSkupOdt2qPgf-13" value="" style="endArrow=classic;html=1;rounded=0;entryX=0.038;entryY=0.143;entryDx=0;entryDy=0;entryPerimeter=0;exitX=1;exitY=0.5;exitDx=0;exitDy=0;" edge="1" parent="1" source="soMuXaNBSkupOdt2qPgf-6" target="soMuXaNBSkupOdt2qPgf-11">
          <mxGeometry width="50" height="50" relative="1" as="geometry">
            <mxPoint x="1740" y="370" as="sourcePoint" />
            <mxPoint x="1790" y="290" as="targetPoint" />
          </mxGeometry>
        </mxCell>
      </root>
    </mxGraphModel>
  </diagram>
</mxfile>
